<svg width="1200" height="400" xmlns="http://www.w3.org/2000/svg">
  <defs>
    <pattern id="circuit" width="60" height="60" patternUnits="userSpaceOnUse">
      <circle cx="30" cy="30" r="2" fill="rgba(255,152,0,0.3)"/>
      <path d="M 30 0 L 30 28 M 30 32 L 30 60 M 0 30 L 28 30 M 32 30 L 60 30" stroke="rgba(255,152,0,0.2)" stroke-width="1"/>
    </pattern>
    <marker id="arrow-orange" markerWidth="10" markerHeight="10" refX="9" refY="3" orient="auto">
      <polygon points="0 0, 10 3, 0 6" fill="#FF9800"/>
    </marker>
  </defs>
  <rect width="1200" height="400" fill="url(#circuit)" />

  <rect x="247" y="140" width="240" height="140" rx="8" fill="none" stroke="#FF9800" stroke-width="2" />
  <line x1="247" y1="165" x2="487" y2="165" stroke="#FF9800" stroke-width="2" />
  
  <circle cx="272" cy="152" r="4" fill="#FF5F56" /> 
  <circle cx="287" cy="152" r="4" fill="#FFBD2E" /> 
  <circle cx="302" cy="152" r="4" fill="#27C93F" /> 
  
  <text x="367" y="230" font-family="Arial, sans-serif" font-size="10" fill="#FF9800" text-anchor="middle" font-weight="bold">USER INPUTS</text>

  <path d="M 487 210 H 537" stroke="#FF9800" stroke-width="2" marker-end="url(#arrow-orange)"/>

  <text x="577" y="205" font-family="Arial, sans-serif" font-size="16" fill="#FF9800" text-anchor="middle" font-weight="bold">f(x)</text>
  <text x="577" y="222" font-family="Arial, sans-serif" font-size="10" fill="#FF9800" text-anchor="middle">BLAKE3</text>

  <path d="M 617 210 H 657" stroke="#FF9800" stroke-width="2" marker-end="url(#arrow-orange)"/>

  <text x="717" y="205" font-family="Arial, sans-serif" font-size="16" fill="#FF9800" text-anchor="middle" font-weight="bold">% 2048</text>
  <text x="717" y="222" font-family="Courier New, monospace" font-size="9" fill="#FF9800" text-anchor="middle" opacity="0.8">BIP39 INDEXING</text>

  <path d="M 767 210 H 797" stroke="#FF9800" stroke-width="2" marker-end="url(#arrow-orange)"/>

  <rect x="837" y="140" width="130" height="140" rx="8" fill="none" stroke="#FF9800" stroke-width="2" stroke-dasharray="4,4"/>
  
  <rect x="862" y="160" width="80" height="50" rx="4" fill="none" stroke="#FF9800" stroke-width="2"/>
  <path d="M 887 185 L 899 200 L 922 180" fill="none" stroke="#FF9800" stroke-width="3" stroke-linecap="round"/>
  
  <text x="902" y="235" font-family="Arial, sans-serif" font-size="12" fill="#FF9800" text-anchor="middle" font-weight="bold">BITCOIN</text>
  <text x="902" y="252" font-family="Arial, sans-serif" font-size="9" fill="#FF9800" text-anchor="middle" opacity="0.7">READY</text>

</svg>
