<svg width="1200" height="400" xmlns="http://www.w3.org/2000/svg">
  <rect width="1200" height="400" fill="#FCFAF7"/>
  
  <!-- Circuit pattern claro -->
  <defs>
    <pattern id="circuit" width="60" height="60" patternUnits="userSpaceOnUse">
      <circle cx="30" cy="30" r="2" fill="rgba(255,152,0,0.3)"/>
      <path d="M 30 0 L 30 28 M 30 32 L 30 60 M 0 30 L 28 30 M 32 30 L 60 30" stroke="rgba(255,152,0,0.2)" stroke-width="1"/>
    </pattern>
  </defs>
  <rect width="1200" height="400" fill="url(#circuit)"/>
  
  <!-- Browser window -->
  <rect x="200" y="120" width="300" height="180" rx="8" fill="none" stroke="#FF9800" stroke-width="2"/>
  <rect x="200" y="120" width="300" height="30" rx="8" fill="rgba(255,152,0,0.15)"/>
  <circle cx="220" cy="135" r="5" fill="#ff4444"/>
  <circle cx="235" cy="135" r="5" fill="#ffaa00"/>
  <circle cx="250" cy="135" r="5" fill="#44ff44"/>
  
  <!-- Math symbol -->
  <text x="600" y="200" font-family="Arial, sans-serif" font-size="20" fill="#FF9800" text-anchor="middle">f(x)</text>
  
  <!-- Arrow -->
  <path d="M 520 210 L 570 210" stroke="#FF9800" stroke-width="2" fill="none" marker-end="url(#arrow2)"/>
  <defs>
    <marker id="arrow2" markerWidth="10" markerHeight="10" refX="9" refY="3" orient="auto">
      <polygon points="0 0, 10 3, 0 6" fill="#FF9800"/>
    </marker>
  </defs>
  
  <!-- Lock/Result -->
  <rect x="800" y="140" width="140" height="140" rx="8" fill="none" stroke="#FF9800" stroke-width="2"/>
  <rect x="820" y="160" width="100" height="60" rx="5" fill="none" stroke="#FF9800" stroke-width="2"/>
  <path d="M 850 195 L 865 210 L 885 185" fill="none" stroke="#FF9800" stroke-width="3" stroke-linecap="round"/>
</svg>
